<svg xmlns="http://www.w3.org/2000/svg" viewBox="0 0 120 120">
  <defs>
    <linearGradient id="bg" x1="0" y1="0" x2="1" y2="1"><stop offset="0" stop-color="#FFF0E6"/><stop offset="1" stop-color="#FFE0CC"/></linearGradient>
    <linearGradient id="bd" x1="0" y1="0" x2="0" y2="1"><stop offset="0" stop-color="#F7A8B8"/><stop offset="1" stop-color="#EF8CA0"/></linearGradient>
  </defs>
  <circle cx="60" cy="60" r="60" fill="url(#bg)"/>
  
  <path d="M60 22c-13 0-21 9-21 22 0 6 1 11 3 15l4-3c-2-4-2-8-2-12 0-10 6-17 16-17s16 7 16 17c0 4 0 8-2 12l4 3c2-4 3-9 3-15 0-13-8-22-21-22z" fill="#6B4A2E"/>
  <path d="M77 38c7 2 10 9 10 17 0 9-3 17-8 21-1-7-2-13-6-18 3-7 4-13 4-20z" fill="#6B4A2E"/>
  <path d="M43 46c0-12 7-20 17-20s17 8 17 20c-3-6-6-8-8-8 1 3 0 5-1 6-2-4-5-6-8-6s-6 2-8 6c-1-1-2-3-1-6-2 0-5 2-8 8z" fill="#6B4A2E"/>
  <rect x="54" y="66" width="12" height="12" rx="4" fill="#F8CFA9"/>
  <path d="M60 76c-16 0-27 9-29 24-1 6-1 12-1 20h60c0-8 0-14-1-20-2-15-13-24-29-24z" fill="url(#bd)"/>
  
  <path d="M50 77c2 6 5 9 10 9s8-3 10-9l-5-2c-1 4-3 6-5 6s-4-2-5-6z" fill="#F9C4CE"/>
  <ellipse cx="60" cy="50" rx="17" ry="19" fill="#F8CFA9"/>
  <ellipse cx="52.5" cy="52" rx="3" ry="3.9" fill="#33241A"/>
  <ellipse cx="67.5" cy="52" rx="3" ry="3.9" fill="#33241A"/>
  <circle cx="53.6" cy="50.6" r="1.2" fill="#FFFFFF"/>
  <circle cx="68.6" cy="50.6" r="1.2" fill="#FFFFFF"/>
  <path d="M48 46.5c1.6-1.4 4-1.6 6-0.6" stroke="#6B4A2E" stroke-width="1.6" stroke-linecap="round" fill="none"/>
  <path d="M66 45.9c2-1 4.4-0.8 6 0.6" stroke="#6B4A2E" stroke-width="1.6" stroke-linecap="round" fill="none"/>
  <ellipse cx="48" cy="58" rx="3.2" ry="2" fill="#F5A08E" opacity="0.7"/>
  <ellipse cx="72" cy="58" rx="3.2" ry="2" fill="#F5A08E" opacity="0.7"/>
  <path d="M54 60c2 2.8 4 3.8 6 3.8s4-1 6-3.8" stroke="#C26B4A" stroke-width="1.8" stroke-linecap="round" fill="none"/>
  <ellipse cx="43" cy="52" rx="3" ry="4.5" fill="#F8CFA9"/>
  <ellipse cx="77" cy="52" rx="3" ry="4.5" fill="#F8CFA9"/>
</svg>