<svg width="20" height="20" viewBox="0 0 20 20" fill="none" xmlns="http://www.w3.org/2000/svg">
<g clip-path="url(#clip0_14353_34066)">
<path d="M16.6667 15.0002C16.8791 15.0004 17.0834 15.0817 17.2378 15.2275C17.3923 15.3733 17.4852 15.5726 17.4976 15.7847C17.5101 15.9967 17.4411 16.2055 17.3048 16.3684C17.1685 16.5312 16.9751 16.6359 16.7642 16.661L16.6667 16.6668H3.33333C3.12093 16.6666 2.91664 16.5853 2.76219 16.4395C2.60775 16.2936 2.5148 16.0944 2.50236 15.8823C2.48991 15.6703 2.5589 15.4615 2.69522 15.2986C2.83155 15.1358 3.02492 15.0311 3.23583 15.006L3.33333 15.0002H16.6667ZM16.6667 9.16683C16.8877 9.16683 17.0996 9.25463 17.2559 9.41091C17.4122 9.56719 17.5 9.77915 17.5 10.0002C17.5 10.2212 17.4122 10.4331 17.2559 10.5894C17.0996 10.7457 16.8877 10.8335 16.6667 10.8335H3.33333C3.11232 10.8335 2.90036 10.7457 2.74408 10.5894C2.5878 10.4331 2.5 10.2212 2.5 10.0002C2.5 9.77915 2.5878 9.56719 2.74408 9.41091C2.90036 9.25463 3.11232 9.16683 3.33333 9.16683H16.6667ZM16.6667 3.3335C16.8877 3.3335 17.0996 3.42129 17.2559 3.57757C17.4122 3.73385 17.5 3.94582 17.5 4.16683C17.5 4.38784 17.4122 4.5998 17.2559 4.75608C17.0996 4.91237 16.8877 5.00016 16.6667 5.00016H3.33333C3.11232 5.00016 2.90036 4.91237 2.74408 4.75608C2.5878 4.5998 2.5 4.38784 2.5 4.16683C2.5 3.94582 2.5878 3.73385 2.74408 3.57757C2.90036 3.42129 3.11232 3.3335 3.33333 3.3335H16.6667Z" fill="#09244B"/>
</g>
<defs>
<clipPath id="clip0_14353_34066">
<rect width="20" height="20" fill="white"/>
</clipPath>
</defs>
</svg>
