<svg  viewBox="0 0 8 8"  xmlns="http://www.w3.org/2000/svg">
<g clip-path="url(#clip0_14284_46384)">
<path d="M3.95328 0.128906C1.78692 0.128906 0.0307617 1.88499 0.0307617 4.05139C0.0307617 6.21759 1.78692 7.97383 3.9532 7.97383C6.11948 7.97383 7.87564 6.21759 7.87564 4.05139C7.87564 1.88499 6.11948 0.128906 3.95324 0.128906H3.95328ZM6.0558 3.01595L3.61512 5.45659C3.59085 5.48087 3.56203 5.50014 3.5303 5.51328C3.49858 5.52642 3.46458 5.53319 3.43024 5.53319C3.3959 5.53319 3.3619 5.52642 3.33018 5.51328C3.29846 5.50014 3.26964 5.48087 3.24536 5.45659L2.02504 4.23627C2.00076 4.21199 1.9815 4.18317 1.96836 4.15144C1.95522 4.11972 1.94845 4.08572 1.94845 4.05139C1.94845 4.01705 1.95522 3.98305 1.96836 3.95133C1.9815 3.91961 2.00076 3.89078 2.02504 3.86651C2.04932 3.84222 2.07815 3.82296 2.10987 3.80982C2.1416 3.79668 2.1756 3.78991 2.20994 3.78991C2.24428 3.78991 2.27828 3.79668 2.31001 3.80982C2.34173 3.82296 2.37056 3.84222 2.39484 3.86651L3.43028 4.90191L5.686 2.64615C5.71028 2.62186 5.73911 2.6026 5.77083 2.58946C5.80256 2.57632 5.83656 2.56956 5.8709 2.56956C5.90524 2.56956 5.93924 2.57632 5.97097 2.58946C6.00269 2.6026 6.03152 2.62186 6.0558 2.64615C6.08008 2.67043 6.09934 2.69925 6.11248 2.73098C6.12563 2.7627 6.13239 2.79671 6.13239 2.83105C6.13239 2.86539 6.12563 2.89939 6.11248 2.93111C6.09934 2.96284 6.08008 2.99166 6.0558 3.01595Z" />
</g>
<defs>
<clipPath id="clip0_14284_46384">
<rect width="8" height="8" fill="white"/>
</clipPath>
</defs>
</svg>
