<svg width="14" height="14" viewBox="0 0 14 14" fill="none" xmlns="http://www.w3.org/2000/svg">
<path d="M7.31823 7.5727C8.27277 6.99997 8.90914 5.98179 8.90914 4.83634C8.90914 3.05452 7.4455 1.59088 5.66368 1.59088C3.88186 1.59088 2.29095 3.05452 2.29095 4.83634C2.29095 5.98179 2.92732 6.99997 3.88186 7.5727C2.16368 8.20906 0.95459 9.86361 0.95459 11.8363C0.95459 12.1545 1.20914 12.4091 1.52732 12.4091C1.8455 12.4091 2.10004 12.1545 2.10004 11.8363C2.10004 9.92725 3.69095 8.33634 5.60004 8.33634C7.57277 8.33634 9.10004 9.92725 9.10004 11.8363C9.10004 12.1545 9.35459 12.4091 9.67277 12.4091C9.99095 12.4091 10.2455 12.1545 10.2455 11.8363C10.2455 9.92725 9.03641 8.2727 7.31823 7.5727ZM5.60004 6.99997C4.39095 6.99997 3.43641 6.04543 3.43641 4.83634C3.43641 3.62725 4.39095 2.6727 5.60004 2.6727C6.80914 2.6727 7.76368 3.62725 7.76368 4.83634C7.76368 6.04543 6.80914 6.99997 5.60004 6.99997ZM10.4364 4.70906H12.5364C12.8546 4.70906 13.0455 4.45452 13.0455 4.19997C13.0455 3.88179 12.791 3.69088 12.5364 3.69088H10.4364C10.1182 3.69088 9.92732 3.94543 9.92732 4.19997C9.86368 4.45452 10.1182 4.70906 10.4364 4.70906Z" fill="#888888"/>
<path d="M12.5363 5.66364H9.86358C9.5454 5.66364 9.35449 5.91818 9.35449 6.17273C9.35449 6.49091 9.60904 6.68182 9.86358 6.68182H12.5363C12.8545 6.68182 13.0454 6.42727 13.0454 6.17273C13.0454 5.91818 12.7909 5.66364 12.5363 5.66364ZM12.5363 7.7H10.4363C10.1181 7.7 9.92722 7.95454 9.92722 8.20909C9.92722 8.52727 10.1818 8.71818 10.4363 8.71818H12.5363C12.8545 8.71818 13.0454 8.46363 13.0454 8.20909C13.0454 7.95454 12.7909 7.7 12.5363 7.7Z" fill="#888888"/>
</svg>
