<svg width="53" height="53" viewBox="0 0 53 53" fill="none" xmlns="http://www.w3.org/2000/svg">
<rect width="53" height="53" rx="16" fill="url(#paint0_linear_484_8805)" fill-opacity="0.1"/>
<rect x="11.2451" y="8.71771" width="30.5095" height="35.5653" rx="7.06667" fill="url(#paint1_linear_484_8805)"/>
<path d="M14.0201 30.6226C13.8726 30.6226 13.7484 30.5721 13.6475 30.4712C13.5465 30.3702 13.4961 30.2461 13.4961 30.0986V23.1473C13.4961 22.9377 13.5698 22.7592 13.7173 22.6117C13.8648 22.4565 14.0433 22.3788 14.2529 22.3788H14.6372C14.7924 22.3788 14.9321 22.4254 15.0563 22.5186C15.1883 22.6117 15.2853 22.7281 15.3474 22.8679L17.9905 29.4582L20.6337 22.8679C20.6958 22.7281 20.7889 22.6117 20.9131 22.5186C21.0451 22.4254 21.1886 22.3788 21.344 22.3788H21.7282C21.9378 22.3788 22.1163 22.4565 22.2638 22.6117C22.4112 22.7592 22.485 22.9377 22.485 23.1473V30.0986C22.485 30.2461 22.4345 30.3702 22.3337 30.4712C22.2327 30.5721 22.1085 30.6226 21.9611 30.6226C21.8135 30.6226 21.6855 30.5721 21.5768 30.4712C21.4759 30.3702 21.4255 30.2461 21.4255 30.0986V23.485L18.7357 30.1335C18.6736 30.2811 18.5727 30.4013 18.433 30.4945C18.3011 30.5798 18.1536 30.6226 17.9905 30.6226C17.8275 30.6226 17.6762 30.5798 17.5364 30.4945C17.4045 30.4013 17.3074 30.2811 17.2454 30.1335L14.5557 23.485V30.0986C14.5557 30.2461 14.5013 30.3702 14.3927 30.4712C14.2917 30.5721 14.1676 30.6226 14.0201 30.6226ZM26.0809 30.6226C25.9333 30.6226 25.8091 30.5721 25.7083 30.4712C25.6073 30.3702 25.5569 30.2461 25.5569 30.0986V22.9727C25.5569 22.8251 25.6073 22.701 25.7083 22.6001C25.8091 22.4914 25.9333 22.4371 26.0809 22.4371H28.7356C29.473 22.4371 30.0746 22.5613 30.5404 22.8097C31.0061 23.058 31.3398 23.3764 31.5417 23.7644C31.7435 24.1525 31.8445 24.5717 31.8445 25.0219C31.8445 25.4722 31.7435 25.8914 31.5417 26.2795C31.3398 26.6675 31.0061 26.9859 30.5404 27.2342C30.0746 27.4826 29.473 27.6068 28.7356 27.6068H26.6165V30.0986C26.6165 30.2461 26.5621 30.3702 26.4535 30.4712C26.3525 30.5721 26.2283 30.6226 26.0809 30.6226ZM28.6308 26.6055C29.4226 26.6055 29.9775 26.4541 30.2959 26.1514C30.6219 25.8487 30.7849 25.4722 30.7849 25.0219C30.7849 24.5717 30.6219 24.1952 30.2959 23.8925C29.9775 23.5898 29.4226 23.4384 28.6308 23.4384H26.6165V26.6055H28.6308ZM36.4888 30.6808C35.6272 30.6808 34.816 30.5256 34.0553 30.215C33.9622 30.1763 33.8883 30.1219 33.8341 30.052C33.7797 29.9743 33.7526 29.8812 33.7526 29.7726C33.7526 29.6407 33.7952 29.528 33.8806 29.4349C33.9738 29.3339 34.0863 29.2835 34.2183 29.2835C34.2882 29.2835 34.3619 29.299 34.4395 29.3301C34.9984 29.5552 35.6156 29.6678 36.2909 29.6678C36.8964 29.6678 37.4047 29.5708 37.8162 29.3767C38.2354 29.1749 38.445 28.8411 38.445 28.3753C38.445 27.3973 37.5872 26.9082 35.8717 26.9082H35.6854C35.5534 26.9082 35.4369 26.8616 35.3361 26.7685C35.243 26.6675 35.1964 26.5511 35.1964 26.4192C35.1964 26.2873 35.243 26.1747 35.3361 26.0815C35.4369 25.9806 35.5534 25.9302 35.6854 25.9302H35.7553C36.5314 25.9302 37.1253 25.8137 37.5368 25.5808C37.9481 25.3402 38.1539 24.987 38.1539 24.5213C38.1539 24.1487 37.9985 23.8537 37.6881 23.6364C37.3776 23.419 36.9196 23.3103 36.3142 23.3103C35.6621 23.3103 35.0605 23.4384 34.5094 23.6946C34.4317 23.7257 34.3619 23.7411 34.2998 23.7411C34.1834 23.7411 34.0824 23.7024 33.9971 23.6247C33.9116 23.5394 33.869 23.4346 33.869 23.3103C33.869 23.1318 33.9465 22.9998 34.1019 22.9144C34.8471 22.5186 35.6156 22.3206 36.4073 22.3206C37.2999 22.3206 37.9909 22.5031 38.4799 22.8679C38.9689 23.2327 39.2134 23.749 39.2134 24.4165C39.2134 24.9521 39.0776 25.3751 38.8059 25.6856C38.5419 25.9884 38.2081 26.2134 37.8046 26.361C38.247 26.4619 38.6389 26.6754 38.9806 27.0014C39.3299 27.3196 39.5045 27.797 39.5045 28.4335C39.5045 29.1476 39.2211 29.7027 38.6545 30.0986C38.0957 30.4867 37.3737 30.6808 36.4888 30.6808Z" fill="white"/>
<path d="M13.6473 30.4707L13.8558 30.2623L13.6473 30.4707ZM13.7172 22.6113L13.9256 22.8197L13.9283 22.817L13.9309 22.8142L13.7172 22.6113ZM15.0562 22.5181L14.8793 22.7539L14.8827 22.7564L14.8862 22.7589L15.0562 22.5181ZM15.3473 22.8674L15.6209 22.7578L15.6189 22.7526L15.6167 22.7477L15.3473 22.8674ZM17.9904 29.4577L17.7168 29.5674L17.9904 30.2497L18.264 29.5674L17.9904 29.4577ZM20.6335 22.8674L20.3641 22.7477L20.3619 22.7526L20.3599 22.7578L20.6335 22.8674ZM20.913 22.5181L20.743 22.2773L20.7395 22.2798L20.7361 22.2823L20.913 22.5181ZM22.2637 22.6113L22.0499 22.8142L22.0525 22.817L22.0553 22.8197L22.2637 22.6113ZM22.3335 30.4707L22.5419 30.6791L22.3335 30.4707ZM21.5767 30.4707L21.3683 30.6791L21.3721 30.683L21.3761 30.6868L21.5767 30.4707ZM21.4253 23.4845H21.7201L21.1521 23.374L21.4253 23.4845ZM18.7356 30.1331L19.0073 30.2474L19.0081 30.2455L19.0089 30.2436L18.7356 30.1331ZM18.4329 30.494L18.593 30.7415L18.5947 30.7405L18.5964 30.7393L18.4329 30.494ZM17.5363 30.494L17.3663 30.7349L17.3743 30.7405L17.3826 30.7456L17.5363 30.494ZM17.2452 30.1331L16.972 30.2436L16.9727 30.2455L16.9735 30.2474L17.2452 30.1331ZM14.5555 23.4845L14.8288 23.374L14.2607 23.4845H14.5555ZM14.3925 30.4707L14.1919 30.2547L14.1879 30.2585L14.1841 30.2623L14.3925 30.4707ZM14.0199 30.3273C13.9477 30.3273 13.8993 30.306 13.8558 30.2623L13.4389 30.6791C13.5971 30.8374 13.7972 30.9169 14.0199 30.9169V30.3273ZM13.8558 30.2623C13.8122 30.2187 13.7907 30.1704 13.7907 30.0981H13.2012C13.2012 30.3208 13.2807 30.521 13.4389 30.6791L13.8558 30.2623ZM13.7907 30.0981V23.1469H13.2012V30.0981H13.7907ZM13.7907 23.1469C13.7907 23.0151 13.8337 22.9116 13.9256 22.8197L13.5087 22.4029C13.3057 22.606 13.2012 22.8595 13.2012 23.1469H13.7907ZM13.9309 22.8142C14.0241 22.7162 14.126 22.6732 14.2528 22.6732V22.0836C13.9604 22.0836 13.7052 22.1958 13.5035 22.4082L13.9309 22.8142ZM14.2528 22.6732H14.637V22.0836H14.2528V22.6732ZM14.637 22.6732C14.7285 22.6732 14.8062 22.6991 14.8793 22.7539L15.2331 22.2823C15.0579 22.1508 14.8561 22.0836 14.637 22.0836V22.6732ZM14.8862 22.7589C14.9773 22.8232 15.0387 22.8988 15.0779 22.9871L15.6167 22.7477C15.5317 22.5566 15.399 22.3993 15.2262 22.2773L14.8862 22.7589ZM15.0737 22.9771L17.7168 29.5674L18.264 29.3481L15.6209 22.7578L15.0737 22.9771ZM18.264 29.5674L20.9071 22.9771L20.3599 22.7578L17.7168 29.3481L18.264 29.5674ZM20.9029 22.9871C20.9442 22.8941 21.0053 22.8175 21.0899 22.7539L20.7361 22.2823C20.5723 22.4051 20.447 22.5613 20.3641 22.7477L20.9029 22.9871ZM21.0829 22.7589C21.1674 22.6994 21.252 22.6732 21.3438 22.6732V22.0836C21.1251 22.0836 20.9225 22.1505 20.743 22.2773L21.0829 22.7589ZM21.3438 22.6732H21.7281V22.0836H21.3438V22.6732ZM21.7281 22.6732C21.8548 22.6732 21.9567 22.7162 22.0499 22.8142L22.4774 22.4082C22.2756 22.1958 22.0203 22.0836 21.7281 22.0836V22.6732ZM22.0553 22.8197C22.1471 22.9116 22.1901 23.0151 22.1901 23.1469H22.7797C22.7797 22.8595 22.6752 22.606 22.4721 22.4029L22.0553 22.8197ZM22.1901 23.1469V30.0981H22.7797V23.1469H22.1901ZM22.1901 30.0981C22.1901 30.1704 22.1686 30.2187 22.1251 30.2623L22.5419 30.6791C22.7002 30.521 22.7797 30.3208 22.7797 30.0981H22.1901ZM22.1251 30.2623C22.0815 30.306 22.0331 30.3273 21.9609 30.3273V30.9169C22.1836 30.9169 22.3836 30.8374 22.5419 30.6791L22.1251 30.2623ZM21.9609 30.3273C21.8883 30.3273 21.8317 30.3054 21.7773 30.2547L21.3761 30.6868C21.539 30.838 21.7385 30.9169 21.9609 30.9169V30.3273ZM21.7851 30.2623C21.7415 30.2187 21.7201 30.1704 21.7201 30.0981H21.1305C21.1305 30.3208 21.21 30.521 21.3683 30.6791L21.7851 30.2623ZM21.7201 30.0981V23.4845H21.1305V30.0981H21.7201ZM21.1521 23.374L18.4623 30.0225L19.0089 30.2436L21.6986 23.5951L21.1521 23.374ZM18.4639 30.0187C18.4254 30.1102 18.3635 30.186 18.2694 30.2488L18.5964 30.7393C18.7817 30.6158 18.9216 30.451 19.0073 30.2474L18.4639 30.0187ZM18.2727 30.2466C18.1903 30.2999 18.0988 30.3273 17.9904 30.3273V30.9169C18.208 30.9169 18.4115 30.859 18.593 30.7415L18.2727 30.2466ZM17.9904 30.3273C17.8819 30.3273 17.7837 30.2998 17.69 30.2424L17.3826 30.7456C17.5684 30.8591 17.7729 30.9169 17.9904 30.9169V30.3273ZM17.7063 30.2532C17.6189 30.1916 17.5574 30.1148 17.5169 30.0187L16.9735 30.2474C17.0572 30.4463 17.1897 30.6102 17.3663 30.7349L17.7063 30.2532ZM17.5185 30.0225L14.8288 23.374L14.2823 23.5951L16.972 30.2436L17.5185 30.0225ZM14.2607 23.4845V30.0981H14.8503V23.4845H14.2607ZM14.2607 30.0981C14.2607 30.1631 14.2409 30.2093 14.1919 30.2547L14.5931 30.6868C14.7615 30.5304 14.8503 30.3281 14.8503 30.0981H14.2607ZM14.1841 30.2623C14.1405 30.306 14.0921 30.3273 14.0199 30.3273V30.9169C14.2427 30.9169 14.4427 30.8374 14.6009 30.6791L14.1841 30.2623ZM25.7081 30.4707L25.9165 30.2623L25.7081 30.4707ZM25.7081 22.5996L25.9165 22.808L25.9204 22.8042L25.924 22.8002L25.7081 22.5996ZM30.5402 22.8092L30.6789 22.5491L30.5402 22.8092ZM31.5416 23.764L31.28 23.9L31.5416 23.764ZM31.5416 26.279L31.28 26.143L31.5416 26.279ZM30.5402 27.2338L30.6789 27.4939L30.5402 27.2338ZM26.6163 27.6064V27.3116H26.3216V27.6064H26.6163ZM26.4533 30.4707L26.2527 30.2547L26.2487 30.2585L26.2448 30.2623L26.4533 30.4707ZM30.2957 26.1509L30.0951 25.9349L30.0938 25.9362L30.0925 25.9374L30.2957 26.1509ZM30.2957 23.8921L30.0925 24.1056L30.0938 24.1068L30.0951 24.1081L30.2957 23.8921ZM26.6163 23.438V23.1432H26.3216V23.438H26.6163ZM26.6163 26.605H26.3216V26.8998H26.6163V26.605ZM26.0807 30.3273C26.0085 30.3273 25.9602 30.306 25.9165 30.2623L25.4996 30.6791C25.6579 30.8374 25.8579 30.9169 26.0807 30.9169V30.3273ZM25.9165 30.2623C25.8729 30.2187 25.8515 30.1704 25.8515 30.0981H25.262C25.262 30.3208 25.3414 30.521 25.4996 30.6791L25.9165 30.2623ZM25.8515 30.0981V22.9722H25.262V30.0981H25.8515ZM25.8515 22.9722C25.8515 22.9 25.8729 22.8517 25.9165 22.808L25.4996 22.3912C25.3414 22.5494 25.262 22.7495 25.262 22.9722H25.8515ZM25.924 22.8002C25.9696 22.7513 26.0157 22.7314 26.0807 22.7314V22.1418C25.8506 22.1418 25.6484 22.2307 25.4921 22.399L25.924 22.8002ZM26.0807 22.7314H28.7355V22.1418H26.0807V22.7314ZM28.7355 22.7314C29.4426 22.7314 29.992 22.8509 30.4014 23.0693L30.6789 22.5491C30.1569 22.2706 29.5031 22.1418 28.7355 22.1418V22.7314ZM30.4014 23.0693C30.8257 23.2956 31.1109 23.5747 31.28 23.9L31.8031 23.6279C31.5686 23.1769 31.1861 22.8197 30.6789 22.5491L30.4014 23.0693ZM31.28 23.9C31.4594 24.2449 31.5496 24.6172 31.5496 25.0215H32.1391C32.1391 24.5254 32.0274 24.0593 31.8031 23.6279L31.28 23.9ZM31.5496 25.0215C31.5496 25.4258 31.4594 25.7981 31.28 26.143L31.8031 26.4151C32.0274 25.9836 32.1391 25.5176 32.1391 25.0215H31.5496ZM31.28 26.143C31.1109 26.4683 30.8257 26.7474 30.4014 26.9737L30.6789 27.4939C31.1861 27.2233 31.5686 26.8661 31.8031 26.4151L31.28 26.143ZM30.4014 26.9737C29.992 27.1921 29.4426 27.3116 28.7355 27.3116V27.9012C29.5031 27.9012 30.1569 27.7724 30.6789 27.4939L30.4014 26.9737ZM28.7355 27.3116H26.6163V27.9012H28.7355V27.3116ZM26.3216 27.6064V30.0981H26.9111V27.6064H26.3216ZM26.3216 30.0981C26.3216 30.1631 26.3017 30.2093 26.2527 30.2547L26.6539 30.6868C26.8222 30.5304 26.9111 30.3281 26.9111 30.0981H26.3216ZM26.2448 30.2623C26.2013 30.306 26.1529 30.3273 26.0807 30.3273V30.9169C26.3034 30.9169 26.5034 30.8374 26.6617 30.6791L26.2448 30.2623ZM28.6307 26.8998C29.4431 26.8998 30.0959 26.7479 30.4988 26.3645L30.0925 25.9374C29.8589 26.1595 29.4018 26.3103 28.6307 26.3103V26.8998ZM30.4963 26.367C30.8832 26.0077 31.0795 25.5525 31.0795 25.0215H30.49C30.49 25.3909 30.3603 25.6887 30.0951 25.9349L30.4963 26.367ZM31.0795 25.0215C31.0795 24.4905 30.8832 24.0353 30.4963 23.676L30.0951 24.1081C30.3603 24.3543 30.49 24.6521 30.49 25.0215H31.0795ZM30.4988 23.6785C30.0959 23.2951 29.4431 23.1432 28.6307 23.1432V23.7327C29.4018 23.7327 29.8589 23.8835 30.0925 24.1056L30.4988 23.6785ZM28.6307 23.1432H26.6163V23.7327H28.6307V23.1432ZM26.3216 23.438V26.605H26.9111V23.438H26.3216ZM26.6163 26.8998H28.6307V26.3103H26.6163V26.8998ZM34.0552 30.2146L33.9418 30.4867L33.9427 30.4871L33.9437 30.4875L34.0552 30.2146ZM33.8339 30.0516L33.5924 30.2206L33.5966 30.2267L33.6012 30.2326L33.8339 30.0516ZM33.8805 29.4345L33.6638 29.2344L33.6631 29.2353L33.8805 29.4345ZM34.4394 29.3297L34.5495 29.0563L34.5489 29.056L34.4394 29.3297ZM37.8161 29.3762L37.9418 29.6429L37.9428 29.6423L37.9438 29.6418L37.8161 29.3762ZM35.336 26.768L35.1193 26.9681L35.1273 26.9766L35.136 26.9847L35.336 26.768ZM35.336 26.0811L35.5444 26.2895L35.336 26.0811ZM37.5366 25.5804L37.6818 25.837L37.6836 25.836L37.6855 25.8348L37.5366 25.5804ZM34.5093 23.6941L34.6188 23.9678L34.6261 23.9649L34.6335 23.9615L34.5093 23.6941ZM33.9969 23.6243L33.7885 23.8327L33.7934 23.8377L33.7986 23.8424L33.9969 23.6243ZM34.1017 22.914L33.9633 22.6537L33.9616 22.6547L33.9597 22.6558L34.1017 22.914ZM38.4798 22.8674L38.656 22.6312L38.4798 22.8674ZM38.8058 25.6852L38.584 25.4911L38.5835 25.4915L38.8058 25.6852ZM37.8044 26.3605L37.7032 26.0836L36.7661 26.4261L37.7388 26.6479L37.8044 26.3605ZM38.9804 27.0009L38.7769 27.2142L38.7794 27.2166L38.7819 27.2188L38.9804 27.0009ZM38.6544 30.0981L38.8226 30.3403L38.8232 30.3399L38.6544 30.0981ZM36.4887 30.3855C35.6633 30.3855 34.8901 30.237 34.1666 29.9416L33.9437 30.4875C34.7415 30.8131 35.5906 30.9751 36.4887 30.9751V30.3855ZM34.1685 29.9425C34.1156 29.9204 34.0855 29.8949 34.0665 29.8706L33.6012 30.2326C33.691 30.348 33.8083 30.4311 33.9418 30.4867L34.1685 29.9425ZM34.0753 29.8825C34.0606 29.8614 34.0472 29.8295 34.0472 29.7721H33.4576C33.4576 29.932 33.4985 30.0863 33.5924 30.2206L34.0753 29.8825ZM34.0472 29.7721C34.0472 29.7104 34.0646 29.6698 34.0978 29.6336L33.6631 29.2353C33.5256 29.3854 33.4576 29.57 33.4576 29.7721H34.0472ZM34.097 29.6345C34.137 29.5911 34.1722 29.5779 34.2182 29.5779V28.9883C34.0002 28.9883 33.8102 29.0759 33.6638 29.2344L34.097 29.6345ZM34.2182 29.5779C34.244 29.5779 34.2804 29.5836 34.3299 29.6034L34.5489 29.056C34.4431 29.0137 34.3321 28.9883 34.2182 28.9883V29.5779ZM34.3293 29.6031C34.9271 29.8439 35.5822 29.9621 36.2907 29.9621V29.3725C35.6486 29.3725 35.0693 29.2657 34.5495 29.0563L34.3293 29.6031ZM36.2907 29.9621C36.926 29.9621 37.4803 29.8605 37.9418 29.6429L37.6903 29.1096C37.3289 29.28 36.8664 29.3725 36.2907 29.3725V29.9621ZM37.9438 29.6418C38.1944 29.5213 38.398 29.3531 38.5372 29.1313C38.6765 28.9095 38.7396 28.653 38.7396 28.3749H38.15C38.15 28.5625 38.1082 28.7058 38.0379 28.8178C37.9677 28.9298 37.8569 29.0294 37.6881 29.1106L37.9438 29.6418ZM38.7396 28.3749C38.7396 27.7787 38.4672 27.3149 37.9475 27.0185C37.4523 26.7362 36.7476 26.613 35.8716 26.613V27.2025C36.7109 27.2025 37.2928 27.3239 37.6554 27.5306C37.9935 27.7233 38.15 27.993 38.15 28.3749H38.7396ZM35.8716 26.613H35.6853V27.2025H35.8716V26.613ZM35.6853 26.613C35.6306 26.613 35.5848 26.5966 35.5358 26.5514L35.136 26.9847C35.2889 27.1258 35.476 27.2025 35.6853 27.2025V26.613ZM35.5525 26.568C35.5074 26.5193 35.491 26.4733 35.491 26.4187H34.9015C34.9015 26.628 34.9781 26.8151 35.1193 26.9681L35.5525 26.568ZM35.491 26.4187C35.491 26.3648 35.5066 26.3272 35.5444 26.2895L35.1276 25.8727C34.979 26.0212 34.9015 26.2087 34.9015 26.4187H35.491ZM35.5444 26.2895C35.5949 26.2389 35.6383 26.2245 35.6853 26.2245V25.6349C35.4683 25.6349 35.2788 25.7214 35.1276 25.8727L35.5444 26.2895ZM35.6853 26.2245H35.7551V25.6349H35.6853V26.2245ZM35.7551 26.2245C36.5531 26.2245 37.2062 26.1061 37.6818 25.837L37.3914 25.3238C37.044 25.5204 36.5096 25.6349 35.7551 25.6349V26.2245ZM37.6855 25.8348C38.1845 25.5428 38.4485 25.0943 38.4485 24.5208H37.859C37.859 24.8788 37.7114 25.1366 37.3878 25.326L37.6855 25.8348ZM38.4485 24.5208C38.4485 24.0501 38.2447 23.6658 37.857 23.3945L37.5189 23.8773C37.7522 24.0408 37.859 24.2464 37.859 24.5208H38.4485ZM37.857 23.3945C37.4753 23.1273 36.9468 23.0151 36.314 23.0151V23.6047C36.8922 23.6047 37.2796 23.7099 37.5189 23.8773L37.857 23.3945ZM36.314 23.0151C35.6222 23.0151 34.9778 23.1513 34.385 23.4268L34.6335 23.9615C35.1429 23.7246 35.7016 23.6047 36.314 23.6047V23.0151ZM34.3997 23.4204C34.3457 23.4421 34.3137 23.4459 34.2997 23.4459V24.0355C34.4098 24.0355 34.5177 24.0082 34.6188 23.9678L34.3997 23.4204ZM34.2997 23.4459C34.2558 23.4459 34.2258 23.434 34.1952 23.4061L33.7986 23.8424C33.9389 23.9699 34.1106 24.0355 34.2997 24.0355V23.4459ZM34.2053 23.4159C34.1769 23.3874 34.1636 23.3584 34.1636 23.3099H33.5741C33.5741 23.5097 33.646 23.6903 33.7885 23.8327L34.2053 23.4159ZM34.1636 23.3099C34.1636 23.2643 34.1731 23.2402 34.1812 23.2265C34.1891 23.2129 34.2052 23.1934 34.2438 23.1722L33.9597 22.6558C33.8429 22.7199 33.7427 22.8091 33.673 22.9276C33.6034 23.0459 33.5741 23.1769 33.5741 23.3099H34.1636ZM34.24 23.1743C34.9455 22.7995 35.6667 22.6149 36.4072 22.6149V22.0254C35.564 22.0254 34.7483 22.2367 33.9633 22.6537L34.24 23.1743ZM36.4072 22.6149C37.2645 22.6149 37.884 22.7908 38.3035 23.1037L38.656 22.6312C38.0973 22.2143 37.3351 22.0254 36.4072 22.0254V22.6149ZM38.3035 23.1037C38.7101 23.4072 38.9185 23.8313 38.9185 24.416H39.5081C39.5081 23.6655 39.2273 23.0574 38.656 22.6312L38.3035 23.1037ZM38.9185 24.416C38.9185 24.902 38.7959 25.2488 38.584 25.4911L39.0276 25.8793C39.3589 25.5007 39.5081 25.0013 39.5081 24.416H38.9185ZM38.5835 25.4915C38.3546 25.7542 38.0635 25.952 37.7032 26.0836L37.9055 26.6375C38.3526 26.474 38.729 26.2217 39.0279 25.8789L38.5835 25.4915ZM37.7388 26.6479C38.1273 26.7365 38.4721 26.9232 38.7769 27.2142L39.184 26.7877C38.8055 26.4266 38.3664 26.1863 37.8699 26.0731L37.7388 26.6479ZM38.7819 27.2188C39.0507 27.4637 39.2096 27.8494 39.2096 28.4331H39.7992C39.7992 27.7438 39.6087 27.1745 39.179 26.7831L38.7819 27.2188ZM39.2096 28.4331C39.2096 29.0548 38.9703 29.5179 38.4855 29.8564L38.8232 30.3399C39.4718 29.8866 39.7992 29.2397 39.7992 28.4331H39.2096ZM38.4862 29.856C37.9897 30.2009 37.3314 30.3855 36.4887 30.3855V30.9751C37.4158 30.9751 38.2013 30.7717 38.8226 30.3403L38.4862 29.856Z" fill="white"/>
<defs>
<linearGradient id="paint0_linear_484_8805" x1="26.5" y1="0" x2="26.5" y2="53" gradientUnits="userSpaceOnUse">
<stop stop-color="#7AA5F7"/>
<stop offset="1" stop-color="#4679DC"/>
</linearGradient>
<linearGradient id="paint1_linear_484_8805" x1="26.4999" y1="8.71771" x2="26.4999" y2="44.2831" gradientUnits="userSpaceOnUse">
<stop stop-color="#7AA5F7"/>
<stop offset="1" stop-color="#4679DC"/>
</linearGradient>
</defs>
</svg>
